<svg xmlns="http://www.w3.org/2000/svg" width="80" height="80" fill="none" viewBox="0 0 80 80">
  <rect x="0" y="0" width="80" height="80" fill="#070b12"/>
  <!-- SVG created with Arrow, by QuiverAI (https://quiver.ai) -->
  <defs>
    <linearGradient id="paint0_linear_3180_53288" x1="10.45" x2="10.45" y1="46.53" y2="52.01" gradientUnits="userSpaceOnUse">
      <stop stop-color="#0B4A84" offset="0"/>
      <stop stop-color="#06254A" offset="1"/>
    </linearGradient>
  </defs>
  <style type="text/css">@keyframes card-in { 0% { opacity: 0; transform: translateY(3px); } 100% { opacity: 1; transform: translateY(0); } }
@keyframes pulse-red { 0%, 100% { transform: scale(1); opacity: 0.85; } 50% { transform: scale(1.35); opacity: 1; } }
@keyframes pulse-gentle { 0%, 100% { transform: scale(1); opacity: 0.75; } 50% { transform: scale(1.18); opacity: 1; } }
.anim-card-1 { animation: card-in 0.4s cubic-bezier(0.16, 1, 0.3, 1) 0s both; }
.anim-card-2 { animation: card-in 0.4s cubic-bezier(0.16, 1, 0.3, 1) 0.08s both; }
.anim-card-3 { animation: card-in 0.4s cubic-bezier(0.16, 1, 0.3, 1) 0.16s both; }
.anim-card-4 { animation: card-in 0.4s cubic-bezier(0.16, 1, 0.3, 1) 0.24s both; }
.anim-card-5 { animation: card-in 0.4s cubic-bezier(0.16, 1, 0.3, 1) 0.32s both; }
.anim-card-6 { animation: card-in 0.4s cubic-bezier(0.16, 1, 0.3, 1) 0.40s both; }
.anim-dot-red { transform-box: fill-box; transform-origin: center; animation: pulse-red 1s ease-in-out infinite; }
.anim-dot-gentle { transform-box: fill-box; transform-origin: center; animation: pulse-gentle 2s ease-in-out infinite; }
.anim-dot-gentle-d1 { transform-box: fill-box; transform-origin: center; animation: pulse-gentle 2s ease-in-out 0.4s infinite; }
.anim-dot-gentle-d2 { transform-box: fill-box; transform-origin: center; animation: pulse-gentle 2s ease-in-out 0.8s infinite; }</style>
  <rect y="17.64" width="80" height="44.73" fill="#000711"/>
  <rect x="1.621" y="19.49" width="18.25" height="40.43" rx="1.045" fill="#0A1D39" stroke="#2A579B" stroke-width=".1211"/>
  <circle cx="5.334" cy="23.79" r="2.152" fill="#5b8cff"/>
  <path d="m3.85 22.25c-0.48 0.4-0.73 0.97-0.73 1.54 0 0.62 0.27 1.2 0.73 1.59l0.51-0.53c-0.32-0.26-0.48-0.65-0.48-1.06s0.16-0.78 0.48-1.04l-0.51-0.5z" fill="#22d3ee"/>
  <circle cx="5.336" cy="23.79" r="1.426" fill="#0A1D39"/>
  <path d="m5.33 21.63c-0.44 0-0.85 0.14-1.18 0.36l0.41 0.6c0.21-0.12 0.47-0.2 0.77-0.2v-0.76z" fill="#1B71F0"/>
  <rect x="8.602" y="21.7" width="6.73" height=".7656" rx=".3828" fill="#18427C"/>
  <rect x="8.602" y="23.41" width="7.906" height=".7344" rx=".3672" fill="#18427C"/>
  <rect x="8.602" y="25.05" width="4.355" height=".75" rx=".375" fill="#18427C"/>
  <circle cx="4.426" cy="29.48" r="1.242" fill="#0D3852"/>
  <circle cx="4.426" cy="29.48" r=".8438" fill="#34d399"/>
  <circle cx="8.613" cy="29.48" r="1.25" fill="#52422D"/>
  <circle cx="8.613" cy="29.48" r=".8438" fill="#fbbf24"/>
  <circle cx="12.86" cy="29.48" r="1.25" fill="#3D2D48"/>
  <circle cx="12.86" cy="29.48" r=".8359" fill="#f87171"/>
  <circle cx="17.07" cy="29.48" r="1.25" fill="#143566"/>
  <circle cx="17.07" cy="29.48" r=".8281" fill="#239CFF"/>
  <rect x="3.195" y="34.32" width="15.05" height="1.074" rx=".5371" fill="#0E305E"/>
  <rect x="3.195" y="34.32" width="10.41" height="1.074" rx=".5371" fill="#14D2F8"/>
  <rect x="3.195" y="36.63" width="15.05" height="1.074" rx=".5371" fill="#0E305E"/>
  <rect x="3.195" y="36.63" width="7.867" height="1.074" rx=".5371" fill="#1A8EFC"/>
  <rect x="3.195" y="38.94" width="15.05" height="1.074" rx=".5371" fill="#0E305E"/>
  <rect x="3.195" y="38.94" width="4.727" height="1.074" rx=".5371" fill="#14D2F8"/>
  <rect x="3.195" y="41.23" width="15.05" height="1.074" rx=".5371" fill="#0E305E"/>
  <rect x="3.195" y="41.23" width="6.547" height="1.074" rx=".5371" fill="#1A8EFC"/>
  <line x1="2.535" x2="18.77" y1="32.35" y2="32.35" stroke="#214A82" stroke-width=".07812"/>
  <line x1="2.535" x2="18.86" y1="44.58" y2="44.58" stroke="#214A82" stroke-width=".07812"/>
  <rect x="3.223" y="46.53" width="15" height="5.486" rx=".5547" fill="#062246"/>
  <path d="m3.22 50.9c0.76-0.17 1.11-0.94 2.08-0.98 0.75 0 1.14 0.45 1.97 0.41 1.62-0.09 2.63-2.84 4.38-2.87 1.34 0 2.02 1.23 3.2 1.23 1.3 0 1.93-1.6 3.4-1.18" stroke="#3091F3" stroke-width=".2812"/>
  <path d="m3.22 50.89c0.76-0.17 1.12-0.94 2.09-0.97 0.75 0 1.14 0.45 1.97 0.41 1.62-0.09 2.63-2.84 4.38-2.87 1.34 0 2.02 1.23 3.2 1.23 1.3 0 1.93-1.6 3.4-1.18v3.98c0 0.31-0.24 0.52-0.54 0.52h-13.97c-0.3 0-0.53-0.21-0.53-0.52v-0.6z" fill="url(#paint0_linear_3180_53288)"/>
  <rect x="4.016" y="53.84" width="1.336" height="3.688" rx=".4844" fill="#14D2F8"/>
  <rect x="7.945" y="54.93" width="1.367" height="2.598" rx=".4922" fill="#168CFB"/>
  <rect x="11.91" y="53.42" width="1.336" height="4.109" rx=".4844" fill="#148CF8"/>
  <rect x="15.98" y="54.43" width="1.383" height="3.102" rx=".4922" fill="#3077EF"/>
  <g class="anim-card-1" id="card-warehouse">
    <rect x="21.48" y="21.77" width="17.85" height="17.63" rx="1.023" fill="#081730" stroke="#2B538F" stroke-width=".1211"/>
    <rect x="22.77" y="23.27" width="7.727" height="1.016" rx=".5078" fill="#1B4989"/>
    <circle cx="37.35" cy="23.82" r=".8359" fill="#282D46"/>
    <circle cx="37.35" cy="23.81" r=".6094" fill="#f87171" class="anim-dot-red" id="status-dot-red"/>
    <path d="m34.15 29.01-3.54-1.93c-0.12-0.05-0.23-0.05-0.33 0l-3.4 1.93c-0.13 0.07-0.19 0.19-0.19 0.32v4.11c0 0.17 0.13 0.29 0.29 0.29h0.88c0.11 0 0.18-0.07 0.18-0.17v-3.4c0-0.14 0.12-0.24 0.25-0.24h4.28c0.18 0 0.3 0.1 0.3 0.24v3.43c0 0.09 0.07 0.14 0.15 0.14h0.86c0.17 0 0.29-0.12 0.29-0.29v-4.11c0-0.13 0.09-0.25-0.02-0.32z" fill="#3376EB"/>
    <path d="m31.14 30.58h-0.52v0.33h-0.32v-0.33h-0.5c-0.08 0-0.12 0.05-0.12 0.12v1.07c0 0.07 0.04 0.12 0.12 0.12h1.34c0.07 0 0.12-0.05 0.12-0.12v-1.07c0-0.07-0.05-0.12-0.12-0.12z" fill="#2389FA"/>
    <path d="m30.19 32.31h-0.5v0.31h-0.32v-0.31h-0.48c-0.08 0-0.13 0.06-0.13 0.13v1.14c0 0.08 0.05 0.13 0.13 0.13h1.3c0.08 0 0.13-0.05 0.13-0.13v-1.14c0-0.07-0.05-0.13-0.13-0.13z" fill="#1A85F9"/>
    <path d="m32.07 32.31h-0.5v0.31h-0.32v-0.31h-0.5c-0.07 0-0.12 0.06-0.12 0.13v1.14c0 0.08 0.05 0.13 0.12 0.13h1.32c0.08 0 0.13-0.05 0.13-0.13v-1.14c0-0.07-0.05-0.13-0.13-0.13z" fill="#1A85F9"/>
    <rect x="23.43" y="36.52" width="14.02" height=".7734" rx=".3867" fill="#0E305E"/>
    <rect x="23.43" y="36.52" width="8.145" height=".7734" rx=".3867" fill="#14D2F8"/>
  </g>
  <g class="anim-card-2" id="card-machining">
    <rect x="40.96" y="21.77" width="17.88" height="17.63" rx="1.023" fill="#081730" stroke="#2B538F" stroke-width=".1211"/>
    <rect x="42.21" y="23.27" width="6.992" height="1.016" rx=".5078" fill="#1B4989"/>
    <circle cx="56.77" cy="23.81" r=".8594" fill="#363044"/>
    <circle cx="56.77" cy="23.81" r=".625" fill="#fbbf24" class="anim-dot-gentle" id="status-dot-yellow-top"/>
    <path d="m52.54 27.06h-5.32c-0.18 0-0.27 0.11-0.27 0.27v1.17c0 0.17 0.09 0.27 0.27 0.27h5.32c0.2 0 0.32-0.1 0.32-0.27v-1.17c0-0.16-0.12-0.27-0.32-0.27z" fill="#1A85F9"/>
    <path d="m50.91 27.28h-3.22v0.41h3.22v-0.41z" fill="#20A1FF"/>
    <path d="m52.17 28.02h-4.48v0.75h4.48v-0.75z" fill="#187EF8"/>
    <path d="m48.56 28.94v0.52c0 0.12 0.09 0.19 0.21 0.19h1.86c0.11 0 0.2-0.07 0.2-0.19v-0.52h-2.27z" fill="#2283F3"/>
    <path d="m49.01 29.85v0.42c0 0.27 0.22 0.45 0.47 0.45h0.48c0.26 0 0.46-0.18 0.46-0.45v-0.42h-1.41z" fill="#2684F5"/>
    <path d="m49.48 30.85v0.42c0 0.22 0.14 0.5 0.26 0.5s0.25-0.28 0.25-0.5v-0.42h-0.51z" fill="#1E6ED3"/>
    <path d="m51.99 32.29h-1.41c-0.17 0.09-0.27 0.39-0.83 0.39-0.54 0-0.63-0.3-0.82-0.39h-1.24c-0.04 0-0.05 0.02-0.05 0.05v0.57h4.45v-0.57c0-0.03-0.04-0.05-0.1-0.05z" fill="#218AF9"/>
    <rect x="46.54" y="33.02" width="6.703" height="1.203" rx=".2578" fill="#1985F9"/>
    <rect x="42.82" y="36.52" width="14.05" height=".7734" rx=".3867" fill="#0E305E"/>
    <rect x="42.82" y="36.52" width="7.023" height=".7734" rx=".3867" fill="#14D2F8"/>
  </g>
  <g class="anim-card-3" id="card-security">
    <rect x="60.45" y="21.77" width="17.84" height="17.63" rx="1.023" fill="#07152D" stroke="#2B538F" stroke-width=".1211"/>
    <rect x="61.66" y="23.27" width="6.992" height="1.016" rx=".5078" fill="#18437E"/>
    <circle cx="76.36" cy="23.81" r=".8438" fill="#203D70"/>
    <circle cx="76.36" cy="23.81" r=".6172" fill="#3A81FF" class="anim-dot-gentle-d1" id="status-dot-blue"/>
    <path d="m69.34 27.27c-0.85 0.57-1.86 0.89-2.61 1.02-0.13 0.03-0.21 0.13-0.21 0.25v1.59c0 2.56 2 3.86 2.81 4.11 0.92-0.31 2.92-1.55 2.92-4.11v-1.61c0-0.11-0.07-0.21-0.19-0.23-0.87-0.15-1.89-0.54-2.65-1.03-0.02-0.01-0.05 0-0.07 0.01z" fill="#348DF8"/>
    <path d="m69.33 27.73c-0.81 0.5-1.78 0.78-2.42 0.89v1.5c0 2.16 1.59 3.35 2.44 3.59 0.87-0.32 2.45-1.43 2.45-3.59v-1.5c-0.77-0.13-1.7-0.44-2.47-0.89z" fill="#1C53A1"/>
    <path d="m68.13 30.77 0.9 0.85 1.59-1.77" stroke="#12D1F6" stroke-linecap="round" stroke-linejoin="round" stroke-width=".5"/>
    <rect x="62.3" y="36.52" width="14.14" height=".7734" rx=".3867" fill="#0E305E"/>
    <rect x="62.3" y="36.52" width="8.688" height=".7734" rx=".3867" fill="#14D2F8"/>
  </g>
  <g class="anim-card-4" id="card-logistics">
    <rect x="21.48" y="41.03" width="17.84" height="16.66" rx="1.023" fill="#081730" stroke="#2B538F" stroke-width=".1211"/>
    <rect x="22.75" y="42.45" width="7.359" height="1.004" rx=".502" fill="#1B4989"/>
    <circle cx="37.35" cy="43.02" r=".8359" fill="#163D4F"/>
    <circle cx="37.35" cy="43.02" r=".6094" fill="#34d399" class="anim-dot-gentle-d2" id="status-dot-green-bottom"/>
    <rect x="24.75" y="55.02" width="12.73" height=".8203" rx=".4102" fill="#0E305E"/>
    <rect x="23.36" y="55.02" width="8.316" height=".8203" rx=".4102" fill="#14DFF7"/>
    <path d="m31.98 46.7h-3.76c-0.24 0-0.37 0.14-0.37 0.36v3.74c0 0.28 0.19 0.44 0.46 0.44h0.34c0.05-0.53 0.47-0.91 0.93-0.91 0.51 0 0.91 0.39 0.96 0.91h1.44c0.26 0 0.4-0.15 0.4-0.41v-3.74c0-0.26-0.14-0.39-0.4-0.39z" fill="#3376EB"/>
    <path d="m34.89 49.11-0.89-1.3c-0.06-0.07-0.15-0.11-0.25-0.11h-1.18v3.16h0.13c0.15-0.35 0.49-0.55 0.81-0.55 0.47 0 0.86 0.37 0.93 0.93h0.17c0.24 0 0.36-0.15 0.36-0.4v-1.46c0-0.1-0.02-0.19-0.08-0.27zm-0.47 0.24h-1.25c-0.06 0-0.09-0.04-0.09-0.09v-1.07c0-0.05 0.03-0.08 0.09-0.08h0.44c0.03 0 0.06 0.02 0.08 0.05l0.78 1.07c0.03 0.05 0.01 0.12-0.05 0.12z" fill="#377AEE"/>
    <circle cx="29.53" cy="51.41" r=".7227" fill="#3579EF"/>
    <circle cx="33.45" cy="51.41" r=".7227" fill="#3579EF"/>
    <path d="m26.21 47.69h2.17" stroke="#14D7F3" stroke-linecap="round" stroke-width=".4375"/>
    <path d="m25.53 48.89h1.8" stroke="#14D7F3" stroke-linecap="round" stroke-width=".4375"/>
    <path d="m26.2 50.03h2.09" stroke="#14D7F3" stroke-linecap="round" stroke-width=".4375"/>
  </g>
  <g class="anim-card-5" id="card-maintenance">
    <rect x="40.96" y="41.03" width="17.86" height="16.66" rx="1.023" fill="#081730" stroke="#2B538F" stroke-width=".1211"/>
    <rect x="42.2" y="42.45" width="6.984" height="1.004" rx=".502" fill="#1B4989"/>
    <circle cx="56.77" cy="43.02" r=".8555" fill="#363044"/>
    <circle cx="56.77" cy="43.02" r=".6172" fill="#fbbf24" class="anim-dot-gentle" id="status-dot-yellow-bottom"/>
    <rect x="49.41" y="55.02" width="7.484" height=".8203" rx=".4102" fill="#0E305E"/>
    <rect x="42.82" y="55.02" width="7.434" height=".8203" rx=".4102" fill="#14DFF7"/>
    <path d="m48.68 50.06-1.61 1.52c-0.3 0.29-0.33 0.71-0.06 0.99 0.27 0.26 0.65 0.21 0.94-0.09l1.56-1.49-0.83-0.93z" fill="#069CFB"/>
    <path d="m52.67 51.38-3.16-3.17c0.03-0.13 0.06-0.27 0.06-0.61-0.02-0.85-0.84-1.46-1.88-1.35-0.16 0.02-0.18 0.14-0.08 0.23l0.66 0.61c0.12 0.28 0.06 0.58-0.2 0.8-0.25 0.2-0.6 0.16-0.8-0.02l-0.52-0.59c-0.07-0.08-0.16-0.05-0.18 0.06-0.2 0.84 0.45 1.9 1.54 1.9 0.16 0 0.29-0.01 0.4-0.03l2.97 3.3c0.34 0.35 0.9 0.33 1.25-0.02 0.32-0.32 0.26-0.81-0.06-1.11zm-0.65 0.76c-0.16 0-0.28-0.13-0.28-0.29s0.12-0.29 0.28-0.29 0.29 0.13 0.29 0.29-0.13 0.29-0.29 0.29z" fill="#3477F1"/>
    <path d="m52.62 46.29-1 0.65c-0.06 0.04-0.1 0.11-0.12 0.18l-0.14 0.62-0.91 0.95 0.42 0.39 0.9-0.91 0.67-0.12c0.08-0.02 0.15-0.06 0.19-0.13l0.62-0.98-0.63-0.65z" fill="#10D7F4"/>
  </g>
  <g class="anim-card-6" id="card-workforce">
    <rect x="60.45" y="41.03" width="17.84" height="16.66" rx="1.023" fill="#081730" stroke="#2B538F" stroke-width=".1211"/>
    <rect x="61.66" y="42.45" width="6.984" height="1.004" rx=".502" fill="#18437E"/>
    <circle cx="76.41" cy="43.02" r=".8438" fill="#163D4F"/>
    <circle cx="76.41" cy="43.02" r=".6133" fill="#34d399" class="anim-dot-gentle-d1" id="status-dot-green-right"/>
    <rect x="69.34" y="55.02" width="7.125" height=".8203" rx=".4102" fill="#0E305E"/>
    <rect x="62.28" y="55.02" width="7.77" height=".8203" rx=".4102" fill="#14DFF7"/>
    <circle cx="69.32" cy="47.73" r="1.176" fill="#1B8FFC"/>
    <path d="m69.31 49.23c-1.23 0-1.93 0.85-1.93 1.89v0.67c0 0.25 0.17 0.41 0.41 0.41h3.14c0.25 0 0.42-0.16 0.42-0.41v-0.67c0-1.09-0.77-1.89-2.04-1.89z" fill="#1B8DFC"/>
    <circle cx="66.64" cy="48.9" r=".8359" fill="#12B3FD"/>
    <path d="m66.61 49.95c-0.96 0-1.42 0.59-1.42 1.26v0.49c0 0.23 0.13 0.34 0.35 0.34h1.49v-0.92c0-0.47 0.1-0.85 0.23-1.07-0.18-0.07-0.4-0.1-0.65-0.1z" fill="#0DA9FB"/>
    <circle cx="72.12" cy="48.88" r=".8398" fill="#12DCE4"/>
    <path d="m72.19 49.95c-0.3 0-0.58 0.04-0.74 0.13 0.14 0.23 0.22 0.59 0.22 1.04v0.92h1.52c0.22 0 0.33-0.1 0.33-0.33v-0.5c0-0.71-0.47-1.26-1.33-1.26z" fill="#12DCE4"/>
  </g>
</svg>